<svg width="24" height="24" viewBox="0 0 24 24" fill="none" xmlns="http://www.w3.org/2000/svg">
<g id="chevron-left-large">
<rect width="24" height="24" fill="white" fill-opacity="0.01"/>
<path id="Vector" fill-rule="evenodd" clip-rule="evenodd" d="M9.00501 10.995L13.598 6.40201C13.6896 6.30855 13.7988 6.23418 13.9193 6.18319C14.0398 6.1322 14.1692 6.10561 14.3001 6.10495C14.4309 6.10429 14.5606 6.12957 14.6816 6.17934C14.8026 6.22911 14.9126 6.30237 15.0051 6.3949C15.0976 6.48742 15.1709 6.59737 15.2207 6.71839C15.2704 6.83941 15.2957 6.96909 15.2951 7.09993C15.2944 7.23078 15.2678 7.3602 15.2168 7.48071C15.1658 7.60122 15.0915 7.71042 14.998 7.80201L11.098 11.702L14.998 15.602C15.1806 15.7883 15.2822 16.0391 15.2809 16.2999C15.2796 16.5608 15.1754 16.8105 14.991 16.995C14.8065 17.1794 14.5568 17.2836 14.2959 17.2849C14.0351 17.2862 13.7843 17.1846 13.598 17.002L9.00501 12.41C8.81753 12.2225 8.71222 11.9682 8.71222 11.703C8.71222 11.4378 8.81753 11.1835 9.00501 10.996V10.995Z" fill="#42526E"/>
</g>
</svg>
