<svg width="8" height="8" viewBox="0 0 8 8" fill="none" xmlns="http://www.w3.org/2000/svg">
<g id="cross" clip-path="url(#clip0_279_11781)">
<rect width="8" height="8" fill="white" fill-opacity="0.01"/>
<path id="Vector" d="M4.00001 3.52867L2.23568 1.76433C2.17281 1.70361 2.08861 1.67002 2.00121 1.67078C1.91381 1.67154 1.83021 1.70659 1.76841 1.76839C1.7066 1.8302 1.67155 1.9138 1.67079 2.0012C1.67003 2.0886 1.70363 2.1728 1.76435 2.23567L3.52868 4L1.76435 5.76433C1.70363 5.8272 1.67003 5.9114 1.67079 5.9988C1.67155 6.0862 1.7066 6.1698 1.76841 6.23161C1.83021 6.29341 1.91381 6.32847 2.00121 6.32923C2.08861 6.32998 2.17281 6.29639 2.23568 6.23567L4.00001 4.47133L5.76435 6.23567C5.82721 6.29639 5.91142 6.32998 5.99881 6.32923C6.08621 6.32847 6.16982 6.29341 6.23162 6.23161C6.29342 6.1698 6.32848 6.0862 6.32924 5.9988C6.33 5.9114 6.2964 5.8272 6.23568 5.76433L4.47135 4L6.23568 2.23567C6.26752 2.20492 6.29291 2.16814 6.31038 2.12747C6.32785 2.0868 6.33705 2.04306 6.33743 1.9988C6.33782 1.95454 6.32938 1.91065 6.31262 1.86968C6.29586 1.82872 6.27111 1.7915 6.23981 1.7602C6.20851 1.7289 6.1713 1.70415 6.13033 1.68739C6.08937 1.67063 6.04547 1.6622 6.00121 1.66258C5.95695 1.66297 5.91321 1.67216 5.87255 1.68963C5.83188 1.7071 5.7951 1.7325 5.76435 1.76433L4.00001 3.52867Z" fill="white" stroke="white" stroke-width="1.5"/>
</g>
<defs>
<clipPath id="clip0_279_11781">
<rect width="8" height="8" fill="white"/>
</clipPath>
</defs>
</svg>
