<svg width="16" height="16" viewBox="0 0 16 16" fill="none" xmlns="http://www.w3.org/2000/svg">
<g id="info">
<rect width="16" height="16" fill="white" fill-opacity="0.01"/>
<path id="Vector" fill-rule="evenodd" clip-rule="evenodd" d="M7.99996 13.3333C6.58547 13.3333 5.22892 12.7714 4.22872 11.7712C3.22853 10.771 2.66663 9.41445 2.66663 7.99996C2.66663 6.58547 3.22853 5.22892 4.22872 4.22872C5.22892 3.22853 6.58547 2.66663 7.99996 2.66663C9.41445 2.66663 10.771 3.22853 11.7712 4.22872C12.7714 5.22892 13.3333 6.58547 13.3333 7.99996C13.3333 9.41445 12.7714 10.771 11.7712 11.7712C10.771 12.7714 9.41445 13.3333 7.99996 13.3333ZM7.99996 7.66663C7.82315 7.66663 7.65358 7.73686 7.52855 7.86189C7.40353 7.98691 7.33329 8.15648 7.33329 8.33329V9.99996C7.33329 10.1768 7.40353 10.3463 7.52855 10.4714C7.65358 10.5964 7.82315 10.6666 7.99996 10.6666C8.17677 10.6666 8.34634 10.5964 8.47136 10.4714C8.59639 10.3463 8.66663 10.1768 8.66663 9.99996V8.33329C8.66663 8.15648 8.59639 7.98691 8.47136 7.86189C8.34634 7.73686 8.17677 7.66663 7.99996 7.66663ZM7.99996 6.91663C8.24307 6.91663 8.47623 6.82005 8.64814 6.64814C8.82005 6.47623 8.91663 6.24307 8.91663 5.99996C8.91663 5.75684 8.82005 5.52369 8.64814 5.35178C8.47623 5.17987 8.24307 5.08329 7.99996 5.08329C7.75684 5.08329 7.52369 5.17987 7.35178 5.35178C7.17987 5.52369 7.08329 5.75684 7.08329 5.99996C7.08329 6.24307 7.17987 6.47623 7.35178 6.64814C7.52369 6.82005 7.75684 6.91663 7.99996 6.91663Z" fill="#7A869A"/>
</g>
</svg>
