<svg width="8" height="8" viewBox="0 0 8 8" fill="none" xmlns="http://www.w3.org/2000/svg">
<g id="check">
<rect width="8" height="8" fill="white" fill-opacity="0.01"/>
<path id="Vector" d="M2.245 4.10733C2.18482 4.04333 2.1018 4.00567 2.014 4.00255C1.9262 3.99943 1.84072 4.03109 1.77615 4.09066C1.71157 4.15023 1.67312 4.23288 1.66916 4.32065C1.6652 4.40841 1.69605 4.49419 1.755 4.55933L2.959 5.86567C3.138 6.041 3.40467 6.041 3.57033 5.87567L3.69167 5.756C4.12984 5.32507 4.56751 4.89363 5.00467 4.46167L5.018 4.44833C5.42656 4.04569 5.83301 3.6409 6.23733 3.234C6.29776 3.17073 6.33089 3.08624 6.32958 2.99877C6.32827 2.91129 6.29262 2.82783 6.23032 2.7664C6.16802 2.70498 6.08406 2.67051 5.99657 2.67044C5.90909 2.67036 5.82507 2.70468 5.76267 2.766C5.36022 3.17078 4.95577 3.57356 4.54933 3.97433L4.536 3.98767C4.11709 4.40176 3.69765 4.81532 3.27767 5.22833L2.245 4.10733Z" fill="white" stroke="white" stroke-width="1.5"/>
</g>
</svg>
