<svg width="16" height="16" viewBox="0 0 16 16" fill="none" xmlns="http://www.w3.org/2000/svg">
<g id="success">
<rect width="16" height="16" fill="white" fill-opacity="0.01"/>
<path id="Vector" fill-rule="evenodd" clip-rule="evenodd" d="M8 13.3333C6.58552 13.3333 5.22896 12.7714 4.22877 11.7712C3.22857 10.771 2.66667 9.41445 2.66667 7.99996C2.66667 6.58547 3.22857 5.22892 4.22877 4.22872C5.22896 3.22853 6.58552 2.66663 8 2.66663C9.41449 2.66663 10.771 3.22853 11.7712 4.22872C12.7714 5.22892 13.3333 6.58547 13.3333 7.99996C13.3333 9.41445 12.7714 10.771 11.7712 11.7712C10.771 12.7714 9.41449 13.3333 8 13.3333ZM8.90934 6.02396L7.47467 8.76396L6.446 7.83729C6.38091 7.77872 6.30492 7.73355 6.22237 7.70435C6.13982 7.67514 6.05233 7.66249 5.96489 7.6671C5.87744 7.67171 5.79177 7.6935 5.71275 7.73123C5.63372 7.76895 5.56291 7.82187 5.50434 7.88696C5.44577 7.95205 5.40059 8.02804 5.37139 8.11059C5.34219 8.19314 5.32953 8.28064 5.33415 8.36808C5.33876 8.45552 5.36055 8.5412 5.39827 8.62022C5.43599 8.69924 5.48891 8.77006 5.55401 8.82863L7.22067 10.3286C7.29619 10.3966 7.38625 10.4465 7.48398 10.4743C7.58171 10.5022 7.68451 10.5074 7.78454 10.4894C7.88457 10.4715 7.97917 10.4309 8.06111 10.3708C8.14306 10.3107 8.21018 10.2326 8.25734 10.1426L10.0907 6.64263C10.1727 6.48597 10.1892 6.30314 10.1364 6.13436C10.0836 5.96558 9.96599 5.82467 9.80934 5.74263C9.65268 5.66059 9.46985 5.64414 9.30107 5.6969C9.13229 5.74966 8.99138 5.8673 8.90934 6.02396Z" fill="#00875A"/>
</g>
</svg>
