<svg viewBox="0 0 186 38" fill="none" xmlns="http://www.w3.org/2000/svg">
<path d="M4.28031 18.98C3.93365 19.7 3.66698 20.4067 3.48031 21.1C3.29365 21.78 3.20031 22.46 3.20031 23.14C3.20031 23.9 3.31365 24.56 3.54031 25.12C3.78031 25.68 4.15365 26.1133 4.66031 26.42C5.18031 26.7267 5.84698 26.88 6.66031 26.88H8.66031C9.54031 26.88 10.2203 26.7867 10.7003 26.6C11.1803 26.4133 11.5136 26.1067 11.7003 25.68C11.9003 25.2667 12.0003 24.6867 12.0003 23.94V17.66H13.9003V23.94C13.9003 25.5267 13.4736 26.7733 12.6203 27.68C11.7803 28.5867 10.4603 29.04 8.66031 29.04H6.66031C5.51365 29.04 4.54031 28.7667 3.74031 28.22C2.94031 27.6867 2.33365 26.9667 1.92031 26.06C1.52031 25.1667 1.32031 24.1933 1.32031 23.14C1.32031 22.2733 1.44698 21.4067 1.70031 20.54C1.96698 19.6733 2.30031 18.8667 2.70031 18.12L4.28031 18.98ZM6.84031 17.02C7.28031 17.02 7.71365 17.02 8.14031 17.02C8.56698 17.02 8.98031 17.02 9.38031 17.02C9.38031 17.5133 9.38031 17.88 9.38031 18.12C9.38031 18.36 9.38031 18.7267 9.38031 19.22C8.80698 19.22 8.38031 19.22 8.10031 19.22C7.82031 19.22 7.40031 19.22 6.84031 19.22C6.84031 18.7133 6.84031 18.34 6.84031 18.1C6.84031 17.86 6.84031 17.5 6.84031 17.02ZM16.6106 10.9H18.4906L18.5106 24H16.6306L16.6106 10.9ZM24.5789 17.66V23.3C24.5789 24.5267 24.3656 25.5667 23.9389 26.42C23.5256 27.2733 22.9122 27.92 22.0989 28.36C21.2989 28.8133 20.3122 29.04 19.1389 29.04H17.8789V26.88H19.1389C20.0189 26.88 20.7122 26.76 21.2189 26.52C21.7389 26.2933 22.1122 25.92 22.3389 25.4C22.5789 24.88 22.6989 24.18 22.6989 23.3V17.66H24.5789ZM24.5789 20.52C24.5789 21 24.6989 21.34 24.9389 21.54C25.1789 21.74 25.5589 21.84 26.0789 21.84H26.3389L26.4589 22.94L26.3389 24H26.0789C25.6389 24 25.2389 23.9133 24.8789 23.74C24.5322 23.5533 24.2389 23.24 23.9989 22.8C23.7722 22.36 23.6522 21.78 23.6389 21.06L24.5789 20.52ZM26.6583 21.84H29.1983C29.9183 21.84 30.4183 21.72 30.6983 21.48C30.9916 21.2267 31.1249 20.8733 31.0983 20.42C31.0716 20.0467 30.9983 19.52 30.8783 18.84C30.7716 18.16 30.6516 17.5133 30.5183 16.9L32.3383 16.44C32.4849 17.0667 32.6249 17.7733 32.7583 18.56C32.8916 19.3467 32.9716 19.98 32.9983 20.46C33.0116 21.0733 32.8849 21.6533 32.6183 22.2C32.3516 22.7333 31.9316 23.1667 31.3583 23.5C30.7983 23.8333 30.0983 24 29.2583 24H26.6583V21.84ZM26.1783 24V21.84H26.8183L26.9183 22.94L26.8183 24H26.1783ZM26.7783 26.86C27.1516 26.86 27.4316 26.86 27.6183 26.86C27.8049 26.86 28.0783 26.86 28.4383 26.86C28.8383 26.86 29.2249 26.86 29.5983 26.86C29.5983 27.1667 29.5983 27.4 29.5983 27.56C29.5983 27.72 29.5983 27.96 29.5983 28.28C29.5983 28.52 29.5983 28.7533 29.5983 28.98C28.9583 28.98 28.4783 28.98 28.1583 28.98C27.8516 28.98 27.3916 28.98 26.7783 28.98C26.7783 28.5 26.7783 28.14 26.7783 27.9C26.7783 27.6733 26.7783 27.3267 26.7783 26.86ZM29.4783 26.86C30.1183 26.86 30.5916 26.86 30.8983 26.86C31.2049 26.86 31.6649 26.86 32.2783 26.86C32.2783 27.34 32.2783 27.6933 32.2783 27.92C32.2783 28.16 32.2783 28.5133 32.2783 28.98C31.6383 28.98 31.1649 28.98 30.8583 28.98C30.5516 28.98 30.0916 28.98 29.4783 28.98C29.4783 28.74 29.4783 28.5067 29.4783 28.28C29.4783 27.96 29.4783 27.72 29.4783 27.56C29.4783 27.4 29.4783 27.1667 29.4783 26.86ZM35.7122 10.9H37.5922L37.6122 24H35.7322L35.7122 10.9ZM48.422 24C47.5954 24 46.8754 23.8067 46.262 23.42C45.6487 23.02 45.1954 22.5 44.902 21.86C44.622 21.2067 44.5354 20.5067 44.642 19.76C44.7487 19.0267 44.9554 18.0067 45.262 16.7L47.022 17.16L46.922 17.58C46.642 18.7933 46.482 19.6133 46.442 20.04C46.3754 20.5867 46.5087 21.0267 46.842 21.36C47.1887 21.68 47.7154 21.84 48.422 21.84H57.042C57.6687 21.84 58.1287 21.68 58.422 21.36C58.7287 21.04 58.882 20.6467 58.882 20.18C58.882 19.58 58.6887 18.3933 58.302 16.62L60.102 16.16C60.542 18.0533 60.762 19.4133 60.762 20.24C60.762 20.84 60.6154 21.4333 60.322 22.02C60.042 22.5933 59.6287 23.0667 59.082 23.44C58.5354 23.8133 57.882 24 57.122 24H48.422ZM50.002 15.06C50.362 15.06 50.6354 15.06 50.822 15.06C51.0087 15.06 51.2887 15.06 51.662 15.06C52.0487 15.06 52.4354 15.06 52.822 15.06C52.822 15.3667 52.822 15.6 52.822 15.76C52.822 15.92 52.822 16.16 52.822 16.48C52.822 16.7067 52.822 16.94 52.822 17.18C52.1687 17.18 51.6887 17.18 51.382 17.18C51.0754 17.18 50.6154 17.18 50.002 17.18C50.002 16.7 50.002 16.3467 50.002 16.12C50.002 15.88 50.002 15.5267 50.002 15.06ZM52.682 15.06C53.322 15.06 53.7954 15.06 54.102 15.06C54.4087 15.06 54.8687 15.06 55.482 15.06C55.482 15.54 55.482 15.9 55.482 16.14C55.482 16.3667 55.482 16.7133 55.482 17.18C54.842 17.18 54.3687 17.18 54.062 17.18C53.7554 17.18 53.2954 17.18 52.682 17.18C52.682 16.94 52.682 16.7067 52.682 16.48C52.682 16.16 52.682 15.92 52.682 15.76C52.682 15.6 52.682 15.3667 52.682 15.06ZM63.4856 10.9H65.3656L65.3856 24H63.5056L63.4856 10.9ZM71.4539 17.66V23.3C71.4539 24.5267 71.2406 25.5667 70.8139 26.42C70.4006 27.2733 69.7872 27.92 68.9739 28.36C68.1739 28.8133 67.1872 29.04 66.0139 29.04H64.7539V26.88H66.0139C66.8939 26.88 67.5872 26.76 68.0939 26.52C68.6139 26.2933 68.9872 25.92 69.2139 25.4C69.4539 24.88 69.5739 24.18 69.5739 23.3V17.66H71.4539ZM78.8525 15.32C79.3058 16.0267 79.6592 16.5867 79.9125 17C80.1792 17.4 80.5325 17.94 80.9725 18.62C81.3858 19.26 81.6125 19.9467 81.6525 20.68C81.6925 21.4133 81.5392 22.0267 81.1925 22.52C80.8058 23.0667 80.3325 23.4533 79.7725 23.68C79.2125 23.8933 78.5792 24 77.8725 24H76.8125C76.0525 24 75.3725 23.8867 74.7725 23.66C74.1725 23.4333 73.6858 23.1733 73.3125 22.88L74.2525 21.1L74.3525 21.16C74.6592 21.3467 74.9992 21.5067 75.3725 21.64C75.7592 21.7733 76.2392 21.84 76.8125 21.84H77.8525C78.3192 21.84 78.6925 21.8 78.9725 21.72C79.2658 21.6267 79.4925 21.4667 79.6525 21.24C79.7725 21.0667 79.8125 20.8667 79.7725 20.64C79.7325 20.4 79.6058 20.1 79.3925 19.74C78.1792 17.86 77.1592 16.3133 76.3325 15.1L77.9325 13.9L78.8525 15.32ZM88.0041 24C87.0841 24 86.3507 23.8267 85.8041 23.48C85.2707 23.12 84.8907 22.6267 84.6641 22C84.4374 21.36 84.3241 20.5867 84.3241 19.68L84.3041 10.9H86.1841L86.2041 19.68C86.2041 20.3333 86.2441 20.8067 86.3241 21.1C86.4041 21.38 86.5641 21.5733 86.8041 21.68C87.0441 21.7867 87.4441 21.84 88.0041 21.84H88.4441L88.5641 22.94L88.4441 24H88.0041ZM96.3277 18.44C97.0077 17.4 97.6743 16.6533 98.3277 16.2C98.9943 15.7333 99.7743 15.5 100.668 15.5C101.454 15.5 102.128 15.7067 102.688 16.12C103.261 16.52 103.694 17.0533 103.988 17.72C104.281 18.3867 104.428 19.1067 104.428 19.88C104.428 20.6933 104.241 21.4133 103.868 22.04C103.494 22.6533 102.981 23.1333 102.328 23.48C101.688 23.8267 100.974 24 100.188 24H95.0277C94.561 24 94.061 23.8867 93.5277 23.66C93.0077 23.4333 92.5477 23.0667 92.1477 22.56C91.761 22.04 91.5677 21.3867 91.5677 20.6V17.66H93.4477V20.6C93.4477 21.0667 93.5943 21.3933 93.8877 21.58C94.1943 21.7533 94.5477 21.84 94.9477 21.84H100.188C100.948 21.84 101.534 21.68 101.948 21.36C102.361 21.0267 102.568 20.5333 102.568 19.88C102.568 19.1867 102.408 18.6467 102.088 18.26C101.781 17.86 101.301 17.66 100.648 17.66C100.274 17.66 99.9477 17.7267 99.6677 17.86C99.401 17.98 99.1343 18.1667 98.8677 18.42C98.6143 18.6733 98.2943 19.06 97.9077 19.58C97.3477 20.3133 96.4743 21.52 95.2877 23.2L93.8477 22.22L96.3277 18.44ZM93.4477 20.6C93.4477 21.2933 93.2543 21.9 92.8677 22.42C92.4943 22.94 92.0143 23.3333 91.4277 23.6C90.8543 23.8667 90.2743 24 89.6877 24H88.2477V21.84H89.7077C90.281 21.84 90.7343 21.74 91.0677 21.54C91.401 21.34 91.5677 21.0267 91.5677 20.6H93.4477ZM114.887 24C114.06 24 113.34 23.8067 112.727 23.42C112.114 23.02 111.66 22.5 111.367 21.86C111.087 21.2067 111 20.5067 111.107 19.76C111.214 19.0267 111.42 18.0067 111.727 16.7L113.487 17.16L113.387 17.58C113.107 18.7933 112.947 19.6133 112.907 20.04C112.84 20.5867 112.974 21.0267 113.307 21.36C113.654 21.68 114.18 21.84 114.887 21.84H121.367C121.9 21.84 122.294 21.74 122.547 21.54C122.814 21.34 122.927 21.0733 122.887 20.74C122.847 20.3933 122.667 20.0333 122.347 19.66L118.887 15.5L119.407 13.04L126.227 10.04L127.007 12L120.947 14.68L123.727 18.2C124.314 18.9333 124.62 19.7667 124.647 20.7C124.674 21.62 124.4 22.4 123.827 23.04C123.254 23.68 122.427 24 121.347 24H114.887ZM128.607 22.9L128.487 24H128.127C127.407 24 126.794 23.88 126.287 23.64C125.794 23.3867 125.314 23.0067 124.847 22.5C124.38 21.9933 123.66 21.14 122.687 19.94L122.327 19.46L123.727 18.2L124.187 18.8C124.934 19.7333 125.487 20.4 125.847 20.8C126.207 21.1867 126.547 21.46 126.867 21.62C127.2 21.7667 127.62 21.84 128.127 21.84H128.487L128.607 22.9ZM128.287 21.84H130.387C130.973 21.84 131.4 21.7133 131.667 21.46C131.933 21.2067 132.053 20.86 132.027 20.42C132 20.0467 131.927 19.52 131.807 18.84C131.687 18.16 131.56 17.5133 131.427 16.9L133.247 16.44C133.393 17.0667 133.533 17.7733 133.667 18.56C133.8 19.3467 133.88 19.98 133.907 20.46C133.933 21.06 133.813 21.6333 133.547 22.18C133.293 22.7267 132.9 23.1667 132.367 23.5C131.847 23.8333 131.213 24 130.467 24H128.287V21.84ZM130.127 11.94C130.567 11.94 131 11.94 131.427 11.94C131.853 11.94 132.267 11.94 132.667 11.94C132.667 12.4333 132.667 12.8 132.667 13.04C132.667 13.28 132.667 13.6467 132.667 14.14C132.093 14.14 131.667 14.14 131.387 14.14C131.107 14.14 130.687 14.14 130.127 14.14C130.127 13.6333 130.127 13.26 130.127 13.02C130.127 12.78 130.127 12.42 130.127 11.94ZM140.192 24C139.272 24 138.538 23.8267 137.992 23.48C137.458 23.12 137.078 22.6267 136.852 22C136.625 21.36 136.512 20.5867 136.512 19.68L136.492 10.9H138.372L138.392 19.68C138.392 20.3333 138.432 20.8067 138.512 21.1C138.592 21.38 138.752 21.5733 138.992 21.68C139.232 21.7867 139.632 21.84 140.192 21.84H140.632L140.752 22.94L140.632 24H140.192ZM140.435 21.84H142.535C143.122 21.84 143.548 21.7133 143.815 21.46C144.082 21.2067 144.202 20.86 144.175 20.42C144.148 20.0467 144.075 19.52 143.955 18.84C143.835 18.16 143.708 17.5133 143.575 16.9L145.395 16.44C145.542 17.0667 145.682 17.7733 145.815 18.56C145.948 19.3467 146.028 19.98 146.055 20.46C146.082 21.06 145.962 21.6333 145.695 22.18C145.442 22.7267 145.048 23.1667 144.515 23.5C143.995 23.8333 143.362 24 142.615 24H140.435V21.84ZM140.475 26.84C140.915 26.84 141.348 26.84 141.775 26.84C142.202 26.84 142.615 26.84 143.015 26.84C143.015 27.3467 143.015 27.72 143.015 27.96C143.015 28.2 143.015 28.56 143.015 29.04C142.442 29.04 142.015 29.04 141.735 29.04C141.455 29.04 141.035 29.04 140.475 29.04C140.475 28.5333 140.475 28.16 140.475 27.92C140.475 27.68 140.475 27.32 140.475 26.84Z" fill="#29166F"/>
<g filter="url(#filter0_d_68_573)">
<path d="M157.066 29.6258C155.548 28.4681 155 27.4334 155 26.1324V8C155 7.44771 155.448 7 156 7H161.849C162.401 7 162.849 7.44773 162.849 8.00002L162.849 26.1677C162.849 26.1677 162.629 28.2364 164.575 29.0448C164.719 29.1045 164.875 29.1574 165.043 29.202C165.989 29.4526 166.851 29.301 167.44 29.1102C167.643 29.0447 167.834 29.2837 167.678 29.4277C165.267 31.6468 159.306 31.3346 157.066 29.6258Z" fill="#29166F"/>
<path d="M176.934 8.37423C178.452 9.53194 179 10.5666 179 11.8676V30C179 30.5523 178.552 31 178 31H172.151C171.599 31 171.151 30.5523 171.151 30L171.151 11.8323C171.151 11.8323 171.371 9.76358 169.425 8.95519C169.281 8.89547 169.125 8.84262 168.957 8.798C168.011 8.54738 167.149 8.69895 166.56 8.8898C166.357 8.95525 166.166 8.7163 166.322 8.57234C168.733 6.35324 174.694 6.66541 176.934 8.37423Z" fill="#29166F"/>
<path d="M166.983 22.721C169.059 22.721 170.741 20.9742 170.741 18.8194C170.741 16.6646 169.059 14.9178 166.983 14.9178C164.907 14.9178 163.224 16.6646 163.224 18.8194C163.224 20.9742 164.907 22.721 166.983 22.721Z" fill="#29166F"/>
</g>
<defs>
<filter id="filter0_d_68_573" x="148.5" y="0.5" width="37" height="37" filterUnits="userSpaceOnUse" color-interpolation-filters="sRGB">
<feFlood flood-opacity="0" result="BackgroundImageFix"/>
<feColorMatrix in="SourceAlpha" type="matrix" values="0 0 0 0 0 0 0 0 0 0 0 0 0 0 0 0 0 0 127 0" result="hardAlpha"/>
<feOffset/>
<feGaussianBlur stdDeviation="3.25"/>
<feComposite in2="hardAlpha" operator="out"/>
<feColorMatrix type="matrix" values="0 0 0 0 1 0 0 0 0 1 0 0 0 0 1 0 0 0 0.25 0"/>
<feBlend mode="normal" in2="BackgroundImageFix" result="effect1_dropShadow_68_573"/>
<feBlend mode="normal" in="SourceGraphic" in2="effect1_dropShadow_68_573" result="shape"/>
</filter>
</defs>
</svg>
